<?xml version="1.0" encoding="UTF-8" standalone="no"?>
<!-- Uploaded to: SVG Repo, www.svgrepo.com, Generator: SVG Repo Mixer Tools -->

<svg
   width="800px"
   height="800px"
   viewBox="0 0 32 32"
   version="1.1"
   id="svg2"
   sodipodi:docname="meson.svg"
   inkscape:version="1.3.2 (091e20ef0f, 2023-11-25, custom)"
   xmlns:inkscape="http://www.inkscape.org/namespaces/inkscape"
   xmlns:sodipodi="http://sodipodi.sourceforge.net/DTD/sodipodi-0.dtd"
   xmlns="http://www.w3.org/2000/svg"
   xmlns:svg="http://www.w3.org/2000/svg"
   xmlns:rdf="http://www.w3.org/1999/02/22-rdf-syntax-ns#"
   xmlns:cc="http://creativecommons.org/ns#"
   xmlns:dc="http://purl.org/dc/elements/1.1/">
  <defs
     id="defs2" />
  <sodipodi:namedview
     id="namedview2"
     pagecolor="#505050"
     bordercolor="#eeeeee"
     borderopacity="1"
     inkscape:showpageshadow="0"
     inkscape:pageopacity="0"
     inkscape:pagecheckerboard="0"
     inkscape:deskcolor="#505050"
     inkscape:zoom="0.834386"
     inkscape:cx="295.42682"
     inkscape:cy="438.6459"
     inkscape:window-width="1920"
     inkscape:window-height="1014"
     inkscape:window-x="1920"
     inkscape:window-y="29"
     inkscape:window-maximized="1"
     inkscape:current-layer="svg2" />
  <title
     id="title1">file_type_meson</title>
  <path
     id="path1"
     style="fill:#6744bf;fill-opacity:1"
     d="M 15.965 2 L 15.965 2.0370313 C 14.919001 2.5920307 2.4269996 9.5740169 2 26.44 C 2 26.44 9.4149909 29.973 15.968984 30 C 22.536978 30 30 26.442969 30 26.442969 C 29.573 9.5779856 17.080999 2.5999994 16.035 2.04 L 16.035 2 L 16 2.02 L 15.965 2 z M 20.847031 12.588984 C 24.815027 17.43898 17.8 23.1 17.8 23.1 C 18.437999 23.453 18.367031 24.442969 18.367031 24.442969 C 12.343037 25.361968 10.855 16.737031 10.855 16.737031 A 0.9 0.9 0 0 1 9.5089844 16.383984 C 11.846982 10.38999 19.926016 13.627031 19.926016 13.627031 C 19.483016 13.042032 20.847031 12.588984 20.847031 12.588984 z " />
  <metadata
     id="metadata2">
    <rdf:RDF>
      <cc:Work
         rdf:about="">
        <dc:title>file_type_meson</dc:title>
      </cc:Work>
    </rdf:RDF>
  </metadata>
</svg>
